<svg width="22" height="19" viewBox="0 0 22 19" fill="none" xmlns="http://www.w3.org/2000/svg">
<path d="M17.9658 13.9783C17.5536 14.3906 16.8852 14.3906 16.473 13.9783C16.0608 13.5661 16.0608 12.8978 16.473 12.4856L18.403 10.5556H14.6168V8.44444H18.403L16.473 6.51444C16.0608 6.10222 16.0608 5.43388 16.473 5.02166C16.8852 4.60944 17.5536 4.60944 17.9658 5.02166L21.5111 8.56701C22.0264 9.08229 22.0264 9.91771 21.5111 10.433L17.9658 13.9783Z" fill="#DBDEE1"/>
<path d="M14.6168 8.44444L14.6168 2.11111C14.6168 0.945177 13.6716 0 12.5057 0L3.0057 0C1.83977 0 0.894594 0.945177 0.894594 2.11111V16.8889C0.894594 18.0548 1.83977 19 3.0057 19H12.5057C13.6716 19 14.6168 18.0548 14.6168 16.8889L14.6168 10.5556H8.28348C7.70052 10.5556 7.22793 10.083 7.22793 9.5C7.22793 8.91703 7.70052 8.44444 8.28348 8.44444H14.6168Z" fill="#DBDEE1"/>
</svg>
