<svg width="17" height="16" viewBox="0 0 17 16" fill="none" xmlns="http://www.w3.org/2000/svg">
<path d="M1.53123 7.20116C1.74715 7.20116 1.95423 7.28545 2.10691 7.43548C2.25959 7.58551 2.34536 7.78899 2.34536 8.00116C2.33567 9.49958 2.85803 10.9544 3.82248 12.1151C4.78693 13.2758 6.13309 14.0697 7.62912 14.36C9.12514 14.6504 10.6774 14.419 12.0185 13.7058C13.3596 12.9925 14.4056 11.8421 14.9764 10.4526C15.5471 9.06303 15.6069 7.52141 15.1455 6.09322C14.684 4.66503 13.7301 3.43967 12.4482 2.62819C11.1662 1.81671 9.63641 1.4699 8.12224 1.6475C6.60806 1.8251 5.2043 2.51598 4.15274 3.60117H6.10666C6.32258 3.60117 6.52965 3.68545 6.68233 3.83548C6.83501 3.98551 6.92079 4.18899 6.92079 4.40117C6.92079 4.61334 6.83501 4.81682 6.68233 4.96685C6.52965 5.11688 6.32258 5.20116 6.10666 5.20116H2.41863C2.20271 5.20116 1.99563 5.11688 1.84295 4.96685C1.69027 4.81682 1.6045 4.61334 1.6045 4.40117V0.801171C1.6045 0.588998 1.69027 0.385515 1.84295 0.235486C1.99563 0.085457 2.20271 0.00117163 2.41863 0.00117163C2.63455 0.00117163 2.84163 0.085457 2.99431 0.235486C3.14699 0.385515 3.23277 0.588998 3.23277 0.801171V2.21717C4.58857 0.943617 6.35029 0.169133 8.22013 0.0246348C10.09 -0.119864 11.9532 0.374487 13.495 1.42412C15.0367 2.47376 16.1623 4.01429 16.6816 5.78532C17.2008 7.55634 17.0818 9.44922 16.3447 11.144C15.6076 12.8387 14.2976 14.2314 12.6361 15.0866C10.9746 15.9418 9.06359 16.2071 7.22606 15.8375C5.38853 15.468 3.73721 14.4863 2.55123 13.0585C1.36525 11.6307 0.717369 9.84422 0.717096 8.00116C0.717096 7.78899 0.80287 7.58551 0.955549 7.43548C1.10823 7.28545 1.31531 7.20116 1.53123 7.20116Z" fill="white"/>
</svg>
