<svg width="32" height="33" viewBox="0 0 32 33" fill="none" xmlns="http://www.w3.org/2000/svg">
<path d="M16.3264 13.3582V19.6811H25.1131C24.7273 21.7145 23.5694 23.4363 21.8329 24.594L27.1316 28.7054C30.2189 25.8557 32 21.6701 32 16.6979C32 15.5402 31.8961 14.427 31.7031 13.3584L16.3264 13.3582Z" fill="#4285F4"/>
<path d="M7.17646 19.4343L5.98139 20.3491L1.75122 23.6441C4.4377 28.9725 9.94384 32.6535 16.3261 32.6535C20.7342 32.6535 24.4299 31.1989 27.1313 28.7054L21.8325 24.594C20.378 25.5736 18.5226 26.1674 16.3261 26.1674C12.0811 26.1674 8.47452 23.3028 7.18313 19.4437L7.17646 19.4343Z" fill="#34A853"/>
<path d="M1.75128 9.00937C0.638159 11.206 0 13.6847 0 16.3266C0 18.9685 0.638159 21.4472 1.75128 23.6438C1.75128 23.6586 7.18372 19.4286 7.18372 19.4286C6.85718 18.449 6.66418 17.4101 6.66418 16.3264C6.66418 15.2428 6.85718 14.2039 7.18372 13.2243L1.75128 9.00937Z" fill="#FBBC05"/>
<path d="M16.3264 6.50099C18.7309 6.50099 20.8682 7.33215 22.5751 8.93516L27.2504 4.25984C24.4155 1.61793 20.7347 0 16.3264 0C9.94418 0 4.4377 3.66608 1.75122 9.00938L7.18349 13.2246C8.4747 9.36557 12.0815 6.50099 16.3264 6.50099Z" fill="#EA4335"/>
</svg>
